<svg width="22" height="22" viewBox="0 0 22 22" fill="none" xmlns="http://www.w3.org/2000/svg">
<path d="M12.3748 7.50141V4.41591C12.3748 4.19774 12.4463 4.01838 12.5893 3.87783C12.7323 3.73727 12.9096 3.66699 13.121 3.66699H17.5943C17.8064 3.66699 17.9824 3.73727 18.1223 3.87783C18.2623 4.01838 18.3326 4.19774 18.3332 4.41591V7.50141C18.3332 7.72019 18.2617 7.89955 18.1187 8.03949C17.9757 8.18005 17.7984 8.25033 17.587 8.25033H13.1137C12.9022 8.25033 12.7262 8.18005 12.5857 8.03949C12.4451 7.89894 12.3748 7.71958 12.3748 7.50141ZM3.6665 10.267V4.40033C3.6665 4.19255 3.738 4.01838 3.881 3.87783C4.024 3.73727 4.20123 3.66699 4.41267 3.66699H8.886C9.09806 3.66699 9.27406 3.73727 9.414 3.87783C9.55395 4.01838 9.62423 4.19255 9.62484 4.40033V10.267C9.62484 10.4748 9.55334 10.6489 9.41034 10.7895C9.26734 10.93 9.09012 11.0003 8.87867 11.0003H4.40534C4.19389 11.0003 4.01789 10.93 3.87734 10.7895C3.73678 10.6489 3.6665 10.4748 3.6665 10.267ZM12.3748 17.6003V11.7337C12.3748 11.5259 12.4463 11.3517 12.5893 11.2112C12.7323 11.0706 12.9096 11.0003 13.121 11.0003H17.5943C17.8064 11.0003 17.9824 11.0706 18.1223 11.2112C18.2623 11.3517 18.3326 11.5259 18.3332 11.7337V17.6003C18.3332 17.8081 18.2617 17.9823 18.1187 18.1228C17.9757 18.2634 17.7984 18.3337 17.587 18.3337H13.1137C12.9022 18.3337 12.7262 18.2634 12.5857 18.1228C12.4451 17.9823 12.3748 17.8081 12.3748 17.6003ZM3.6665 17.5847V14.4992C3.6665 14.2811 3.738 14.1017 3.881 13.9612C4.024 13.8206 4.20123 13.7503 4.41267 13.7503H8.886C9.09806 13.7503 9.27406 13.8206 9.414 13.9612C9.55395 14.1017 9.62423 14.2811 9.62484 14.4992V17.5847C9.62484 17.8035 9.55334 17.9829 9.41034 18.1228C9.26734 18.2634 9.09012 18.3337 8.87867 18.3337H4.40534C4.19389 18.3337 4.01789 18.2634 3.87734 18.1228C3.73678 17.9823 3.6665 17.8029 3.6665 17.5847ZM4.58317 10.0837H8.70817V4.58366H4.58317V10.0837ZM13.2915 17.417H17.4165V11.917H13.2915V17.417ZM13.2915 7.33366H17.4165V4.58366H13.2915V7.33366ZM4.58317 17.417H8.70817V14.667H4.58317V17.417Z" fill="black"/>
</svg>
