<svg width="25" height="25" viewBox="0 0 25 25" fill="none" xmlns="http://www.w3.org/2000/svg">
<path d="M7.9335 20.8333C7.47031 20.8333 7.07413 20.6684 6.74496 20.3385C6.41579 20.0087 6.25086 19.6132 6.25017 19.1521V6.25H5.72934C5.58142 6.25 5.45781 6.2 5.3585 6.1C5.2592 6 5.2092 5.87604 5.2085 5.72812C5.20781 5.58021 5.25781 5.4566 5.3585 5.35729C5.4592 5.25799 5.58281 5.20833 5.72934 5.20833H9.37517C9.37517 4.99306 9.45503 4.80556 9.61475 4.64583C9.77447 4.48611 9.96198 4.40625 10.1773 4.40625H14.8231C15.0384 4.40625 15.2259 4.48611 15.3856 4.64583C15.5453 4.80556 15.6252 4.99306 15.6252 5.20833H19.271C19.4189 5.20833 19.5425 5.25833 19.6418 5.35833C19.7411 5.45833 19.7911 5.58229 19.7918 5.73021C19.7925 5.87812 19.7425 6.00174 19.6418 6.10104C19.5411 6.20035 19.4175 6.25 19.271 6.25H18.7502V19.151C18.7502 19.6135 18.5852 20.0094 18.2554 20.3385C17.9255 20.6677 17.5297 20.8326 17.0679 20.8333H7.9335ZM17.7085 6.25H7.29184V19.151C7.29184 19.3378 7.35191 19.4913 7.47204 19.6115C7.59218 19.7316 7.746 19.7917 7.9335 19.7917H17.0679C17.2547 19.7917 17.4082 19.7316 17.5283 19.6115C17.6484 19.4913 17.7085 19.3378 17.7085 19.151V6.25ZM11.1095 17.5583C11.2088 17.4583 11.2585 17.3347 11.2585 17.1875V8.85417C11.2585 8.70625 11.2085 8.58264 11.1085 8.48333C11.0085 8.38403 10.8845 8.33403 10.7366 8.33333C10.5887 8.33264 10.4651 8.38264 10.3658 8.48333C10.2665 8.58403 10.2168 8.70764 10.2168 8.85417V17.1875C10.2168 17.3354 10.2668 17.459 10.3668 17.5583C10.4668 17.6583 10.5904 17.7083 10.7377 17.7083C10.8856 17.7083 11.0095 17.6583 11.1095 17.5583ZM14.6345 17.5583C14.7338 17.4583 14.7835 17.3347 14.7835 17.1875V8.85417C14.7835 8.70625 14.7335 8.58264 14.6335 8.48333C14.5335 8.38333 14.4099 8.33333 14.2627 8.33333C14.1148 8.33333 13.9908 8.38333 13.8908 8.48333C13.7908 8.58333 13.7411 8.70694 13.7418 8.85417V17.1875C13.7418 17.3354 13.7918 17.459 13.8918 17.5583C13.9918 17.6576 14.1158 17.7076 14.2637 17.7083C14.4116 17.709 14.5352 17.659 14.6345 17.5583Z" fill="#656565"/>
</svg>
