<svg width="18" height="18" viewBox="0 0 18 18" fill="none" xmlns="http://www.w3.org/2000/svg">
<path d="M4.5 6H7.5" stroke="white" stroke-width="1.125" stroke-linecap="round" stroke-linejoin="round"/>
<path d="M15.6248 6.75H13.6733C12.3345 6.75 11.25 7.75725 11.25 9C11.25 10.2427 12.3352 11.25 13.6725 11.25H15.6248C15.6878 11.25 15.7185 11.25 15.7448 11.2485C16.1498 11.2238 16.4722 10.9245 16.4985 10.5487C16.5 10.5247 16.5 10.4955 16.5 10.4377V7.56225C16.5 7.5045 16.5 7.47525 16.4985 7.45125C16.4715 7.0755 16.1498 6.77625 15.7448 6.7515C15.7193 6.75 15.6878 6.75 15.6248 6.75Z" stroke="white" stroke-width="1.125"/>
<path d="M15.7238 6.75C15.6653 5.346 15.4777 4.485 14.871 3.879C13.9927 3 12.5782 3 9.75 3H7.5C4.67175 3 3.25725 3 2.379 3.879C1.50075 4.758 1.5 6.17175 1.5 9C1.5 11.8282 1.5 13.2427 2.379 14.121C3.258 14.9992 4.67175 15 7.5 15H9.75C12.5782 15 13.9927 15 14.871 14.121C15.4777 13.515 15.666 12.654 15.7238 11.25" stroke="white" stroke-width="1.125"/>
<path d="M13.4932 9H13.5007" stroke="white" stroke-width="1.5" stroke-linecap="round" stroke-linejoin="round"/>
</svg>
