<svg width="22" height="22" viewBox="0 0 22 22" fill="none" xmlns="http://www.w3.org/2000/svg">
<path d="M11 7.33301V10.9997L13.2917 13.2913" stroke="#AAAAAA" stroke-width="1.5" stroke-linecap="round" stroke-linejoin="round"/>
<path d="M3.97654 6.29854L3.28904 6.30129C3.28977 6.48251 3.36201 6.65613 3.49008 6.78436C3.61814 6.91259 3.79165 6.98507 3.97288 6.98604L3.97654 6.29854ZM6.30671 6.99704C6.39699 6.99746 6.48648 6.98009 6.57005 6.94593C6.65362 6.91177 6.72965 6.86149 6.79379 6.79794C6.85792 6.7344 6.90892 6.65885 6.94386 6.5756C6.9788 6.49235 6.997 6.40303 6.99742 6.31275C6.99784 6.22246 6.98047 6.13298 6.94631 6.04941C6.91215 5.96584 6.86187 5.88981 6.79832 5.82567C6.73478 5.76153 6.65923 5.71054 6.57598 5.6756C6.49273 5.64066 6.40341 5.62246 6.31313 5.62204L6.30671 6.99704ZM4.65213 3.96104C4.65164 3.87076 4.63339 3.78145 4.59839 3.69822C4.5634 3.615 4.51235 3.53948 4.44817 3.47598C4.38399 3.41248 4.30793 3.36224 4.22433 3.32814C4.14074 3.29403 4.05124 3.27672 3.96096 3.27721C3.87068 3.27769 3.78137 3.29595 3.69814 3.33094C3.61492 3.36594 3.5394 3.41698 3.4759 3.48116C3.4124 3.54534 3.36216 3.6214 3.32806 3.705C3.29395 3.78859 3.27664 3.87809 3.27713 3.96837L4.65213 3.96104ZM3.50813 9.88637C3.5213 9.79652 3.51654 9.70495 3.49412 9.61695C3.47171 9.52894 3.43208 9.44625 3.37753 9.37365C3.32297 9.30105 3.25458 9.23998 3.17629 9.19396C3.098 9.14794 3.01137 9.11789 2.9214 9.10553C2.83143 9.09318 2.73991 9.09878 2.65211 9.122C2.56432 9.14522 2.482 9.1856 2.4099 9.24081C2.3378 9.29603 2.27735 9.36498 2.23205 9.44369C2.18675 9.52239 2.15749 9.60929 2.14596 9.69937L3.50813 9.88637ZM17.2902 4.70996C13.7885 1.20829 8.12996 1.17162 4.65121 4.65129L5.62288 5.62296C8.55621 2.69054 13.344 2.70796 16.3185 5.68162L17.2902 4.70996ZM4.70988 17.2903C8.21154 20.792 13.8701 20.8286 17.3489 17.349L16.3772 16.3773C13.4439 19.3097 8.65613 19.2923 5.68154 16.3186L4.70988 17.2903ZM17.3489 17.349C20.8276 13.8702 20.7919 8.21162 17.2902 4.70996L16.3185 5.68162C19.2922 8.65621 19.3096 13.444 16.3772 16.3773L17.3489 17.349ZM4.65121 4.65129L3.48979 5.81179L4.46238 6.78346L5.62288 5.62296L4.65121 4.65129ZM3.97288 6.98604L6.30671 6.99704L6.31313 5.62204L3.98021 5.61104L3.97288 6.98604ZM4.66404 6.29487L4.65213 3.96104L3.27713 3.96837L3.28904 6.30129L4.66404 6.29487ZM2.14504 9.69846C1.95656 11.0758 2.09 12.4781 2.53486 13.7952C2.97973 15.1123 3.72391 16.3084 4.70896 17.2894L5.68063 16.3177C4.84563 15.4866 4.21478 14.4732 3.83765 13.3571C3.46053 12.241 3.34742 11.0527 3.50721 9.88546L2.14504 9.69846Z" fill="#AAAAAA"/>
</svg>
