<svg width="40" height="40" viewBox="0 0 40 40" fill="none" xmlns="http://www.w3.org/2000/svg">
<g clip-path="url(#clip0_178_262)">
<path d="M1.25 38.75L11.25 13.75M36.25 38.75L31.25 26.25M18.75 38.75V36.25M18.75 28.75V26.25M18.75 18.75V16.25M31.25 1.25C33.2391 1.25 35.1468 2.04018 36.5533 3.4467C37.9598 4.85322 38.75 6.76088 38.75 8.75C38.75 11.9517 34.27 18.045 32.235 20.6467C32.1181 20.7963 31.9686 20.9173 31.798 21.0006C31.6273 21.0838 31.4399 21.1271 31.25 21.1271C31.0601 21.1271 30.8727 21.0838 30.702 21.0006C30.5314 20.9173 30.3819 20.7963 30.265 20.6467C28.23 18.0433 23.75 11.9517 23.75 8.75C23.75 6.76088 24.5402 4.85322 25.9467 3.4467C27.3532 2.04018 29.2609 1.25 31.25 1.25Z" stroke="white" stroke-width="2.5" stroke-linecap="round" stroke-linejoin="round"/>
<path d="M30.8081 9.19194C30.9253 9.30915 31.0842 9.375 31.25 9.375C31.4158 9.375 31.5747 9.30915 31.6919 9.19194C31.8092 9.07473 31.875 8.91576 31.875 8.75C31.875 8.58424 31.8092 8.42527 31.6919 8.30806C31.5747 8.19085 31.4158 8.125 31.25 8.125C31.0842 8.125 30.9253 8.19085 30.8081 8.30806C30.6908 8.42527 30.625 8.58424 30.625 8.75C30.625 8.91576 30.6908 9.07473 30.8081 9.19194Z" stroke="white" stroke-width="2.5"/>
</g>
<defs>
<clipPath id="clip0_178_262">
<rect width="40" height="40" fill="white"/>
</clipPath>
</defs>
</svg>
