<svg width="25" height="25" viewBox="0 0 25 25" fill="none" xmlns="http://www.w3.org/2000/svg">
<path d="M7.2915 7.29199H6.24984C5.6973 7.29199 5.1674 7.51149 4.7767 7.90219C4.386 8.29289 4.1665 8.82279 4.1665 9.37533V18.7503C4.1665 19.3029 4.386 19.8328 4.7767 20.2235C5.1674 20.6142 5.6973 20.8337 6.24984 20.8337H15.6248C16.1774 20.8337 16.7073 20.6142 17.098 20.2235C17.4887 19.8328 17.7082 19.3029 17.7082 18.7503V17.7087" stroke="#656565" stroke-width="2.08333" stroke-linecap="round" stroke-linejoin="round"/>
<path d="M16.6667 5.20844L19.7917 8.33344M21.2344 6.85949C21.6446 6.44923 21.8751 5.8928 21.8751 5.31261C21.8751 4.73242 21.6446 4.17599 21.2344 3.76574C20.8241 3.35548 20.2677 3.125 19.6875 3.125C19.1073 3.125 18.5509 3.35548 18.1406 3.76574L9.375 12.5001V15.6251H12.5L21.2344 6.85949Z" stroke="#656565" stroke-width="2.08333" stroke-linecap="round" stroke-linejoin="round"/>
</svg>
