<svg width="35" height="35" viewBox="0 0 35 35" fill="none" xmlns="http://www.w3.org/2000/svg">
<path fill-rule="evenodd" clip-rule="evenodd" d="M17.4999 3.64551C15.9525 3.64515 14.438 4.09241 13.139 4.93337C11.8401 5.77433 10.8121 6.97308 10.1791 8.38509C10.0906 8.58528 10.0002 8.78459 9.90784 8.98301L9.80867 9.17551C9.76047 9.25472 9.69762 9.32401 9.62346 9.37967C9.54214 9.42431 9.45304 9.45302 9.36096 9.46426C9.30846 9.47447 9.20054 9.47884 8.74992 9.47884C7.39621 9.47884 6.09794 10.0166 5.14073 10.9738C4.18351 11.931 3.64575 13.2293 3.64575 14.583C3.64575 15.9367 4.18351 17.235 5.14073 18.1922C6.09794 19.1494 7.39621 19.6872 8.74992 19.6872H9.72992L11.1883 18.2288H8.74992C7.78298 18.2288 6.85565 17.8447 6.17193 17.161C5.4882 16.4773 5.10409 15.5499 5.10409 14.583C5.10409 13.6161 5.4882 12.6887 6.17193 12.005C6.85565 11.3213 7.78298 10.9372 8.74992 10.9372H8.82867C9.15825 10.9372 9.43096 10.9372 9.64825 10.8934C9.91075 10.8409 10.1703 10.7622 10.4153 10.6018C10.6603 10.4443 10.8383 10.2401 10.9958 10.0213C11.0803 9.90467 11.1562 9.75301 11.2247 9.60863C11.2967 9.45405 11.3905 9.24794 11.5062 8.9903L11.5091 8.98301C12.0267 7.82698 12.8677 6.84541 13.9307 6.15668C14.9937 5.46795 16.2333 5.10149 17.4999 5.10149C18.7665 5.10149 20.0061 5.46795 21.0691 6.15668C22.1321 6.84541 22.9731 7.82698 23.4908 8.98301L23.4937 8.99176C23.6094 9.24842 23.7032 9.45405 23.7751 9.60863C23.8437 9.75301 23.9195 9.90322 24.0041 10.0213C24.1601 10.2401 24.3395 10.4443 24.5845 10.6032C24.8295 10.7622 25.0891 10.8409 25.3516 10.8949C25.5689 10.9386 25.8416 10.9386 26.1712 10.9372H26.2499C27.2169 10.9372 28.1442 11.3213 28.8279 12.005C29.5116 12.6887 29.8958 13.6161 29.8958 14.583C29.8958 15.5499 29.5116 16.4773 28.8279 17.161C28.1442 17.8447 27.2169 18.2288 26.2499 18.2288H23.8116L25.2699 19.6872H26.2499C26.9202 19.6872 27.5839 19.5552 28.2032 19.2986C28.8225 19.0421 29.3851 18.6662 29.8591 18.1922C30.3331 17.7182 30.709 17.1556 30.9656 16.5363C31.2221 15.917 31.3541 15.2533 31.3541 14.583C31.3541 13.9127 31.2221 13.249 30.9656 12.6297C30.709 12.0105 30.3331 11.4478 29.8591 10.9738C29.3851 10.4999 28.8225 10.1239 28.2032 9.86737C27.5839 9.61086 26.9202 9.47884 26.2499 9.47884C25.7993 9.47884 25.6914 9.47447 25.6403 9.46426C25.5482 9.45256 25.4591 9.42336 25.3778 9.37822C25.3032 9.3227 25.2398 9.25339 25.1912 9.17405L25.1678 9.13467L25.092 8.98155C24.9996 8.78362 24.9092 8.58479 24.8208 8.38509C24.1877 6.97308 23.1597 5.77433 21.8608 4.93337C20.5618 4.09241 19.0473 3.64515 17.4999 3.64551Z" fill="#AAAAAA"/>
<path d="M17.5 17.4998L16.9837 16.9835L17.5 16.4688L18.0162 16.9835L17.5 17.4998ZM18.2291 30.6248C18.2291 30.8182 18.1523 31.0036 18.0156 31.1404C17.8788 31.2771 17.6934 31.354 17.5 31.354C17.3066 31.354 17.1211 31.2771 16.9844 31.1404C16.8476 31.0036 16.7708 30.8182 16.7708 30.6248H18.2291ZM11.1504 22.8169L16.9837 16.9835L18.0162 18.016L12.1829 23.8494L11.1504 22.8169ZM18.0162 16.9835L23.8496 22.8169L22.8171 23.8494L16.9837 18.016L18.0162 16.9835ZM18.2291 17.4998V30.6248H16.7708V17.4998H18.2291Z" fill="#AAAAAA"/>
</svg>
