<svg width="21" height="11" viewBox="0 0 21 11" fill="none" xmlns="http://www.w3.org/2000/svg">
<path d="M18.9066 3.69452e-07C18.6267 7.243e-05 18.3511 0.0684727 18.1037 0.199259C17.8563 0.330045 17.6446 0.51926 17.487 0.750467C17.3293 0.981673 17.2305 1.24788 17.1991 1.52595C17.1677 1.80403 17.2047 2.08556 17.3068 2.34609L13.6902 5.96277C13.287 5.80407 12.8387 5.80407 12.4355 5.96277L9.85005 3.37734C9.95242 3.11675 9.98959 2.8351 9.95831 2.55687C9.92703 2.27864 9.82826 2.01226 9.67058 1.78091C9.5129 1.54955 9.30109 1.36021 9.05357 1.22937C8.80604 1.09852 8.5303 1.03012 8.25032 1.03012C7.97034 1.03012 7.6946 1.09852 7.44707 1.22937C7.19955 1.36021 6.98774 1.54955 6.83006 1.78091C6.67238 2.01226 6.57361 2.27864 6.54233 2.55687C6.51105 2.8351 6.54822 3.11675 6.65059 3.37734L2.34641 7.68152C1.97883 7.53733 1.5728 7.5241 1.1966 7.64405C0.820406 7.76401 0.496985 8.00984 0.28072 8.34021C0.064455 8.67057 -0.0314634 9.06533 0.00909262 9.4581C0.0496486 9.85087 0.224206 10.2177 0.503413 10.4969C0.78262 10.7761 1.14945 10.9507 1.54222 10.9912C1.93499 11.0318 2.32975 10.9359 2.66012 10.7196C2.99048 10.5033 3.23631 10.1799 3.35627 9.80372C3.47623 9.42752 3.46299 9.02149 3.3188 8.65391L7.62298 4.34973C8.02615 4.50843 8.47449 4.50843 8.87766 4.34973L11.4631 6.93516C11.3607 7.19575 11.3236 7.47741 11.3548 7.75563C11.3861 8.03386 11.4849 8.30024 11.6426 8.5316C11.8002 8.76295 12.0121 8.95229 12.2596 9.08313C12.5071 9.21398 12.7828 9.28238 13.0628 9.28238C13.3428 9.28238 13.6185 9.21398 13.8661 9.08313C14.1136 8.95229 14.3254 8.76295 14.4831 8.5316C14.6408 8.30024 14.7395 8.03386 14.7708 7.75563C14.8021 7.47741 14.7649 7.19575 14.6625 6.93516L18.2792 3.31848C18.5146 3.41094 18.7674 3.45033 19.0197 3.43384C19.2721 3.41736 19.5176 3.34541 19.739 3.22311C19.9603 3.10082 20.1519 2.9312 20.3001 2.72636C20.4484 2.52151 20.5496 2.28647 20.5965 2.03802C20.6435 1.78956 20.6351 1.5338 20.5718 1.28898C20.5086 1.04415 20.3922 0.816292 20.2308 0.621648C20.0693 0.427004 19.867 0.270371 19.6381 0.162917C19.4092 0.0554623 19.1594 -0.000165411 18.9066 3.69452e-07Z" fill="#AAAAAA"/>
</svg>
