<svg width="40" height="40" viewBox="0 0 40 40" fill="none" xmlns="http://www.w3.org/2000/svg">
<path d="M3.41482 7.03262L5.75232 4.68262L33.8998 32.9676L31.5623 35.3176L19.8198 23.5176C16.7698 23.5485 13.8553 24.7821 11.7098 26.9501L8.38982 23.6176C10.4119 21.5854 12.9356 20.1243 15.7048 19.3826L11.9898 15.6501C9.39794 16.7172 7.04589 18.2923 5.07232 20.2826L1.75732 16.9501C3.72339 14.9912 5.99041 13.3597 8.47232 12.1176L3.41482 7.03262ZM38.2423 16.9501L34.9248 20.2826C32.9449 18.2913 30.587 16.7157 27.9897 15.6484C25.3923 14.5811 22.6078 14.0437 19.7998 14.0676L15.5248 9.76762C23.5348 8.36762 32.0598 10.7326 38.2448 16.9501M25.4423 19.7326C27.7645 20.5482 29.8732 21.876 31.6123 23.6176L30.4498 24.7676L25.4423 19.7326ZM15.0273 30.2826L20.0023 35.2826L24.9773 30.2826C24.3264 29.625 23.5516 29.103 22.6976 28.7467C21.8437 28.3904 20.9276 28.207 20.0023 28.207C19.077 28.207 18.1609 28.3904 17.307 28.7467C16.4531 29.103 15.6782 29.625 15.0273 30.2826Z" fill="white"/>
</svg>
