<svg width="25" height="25" viewBox="0 0 25 25" fill="none" xmlns="http://www.w3.org/2000/svg">
<path d="M17.0519 13.3229C16.9247 13.2723 16.7888 13.2473 16.6519 13.2492C16.515 13.2511 16.3798 13.28 16.254 13.3341C16.1283 13.3883 16.0144 13.4667 15.919 13.5649C15.8235 13.663 15.7484 13.779 15.6978 13.9063C15.6471 14.0335 15.6221 14.1694 15.624 14.3063C15.6259 14.4432 15.6548 14.5784 15.709 14.7042C15.7631 14.8299 15.8415 14.9438 15.9397 15.0392C16.0379 15.1346 16.1539 15.2098 16.2811 15.2604C17.8019 15.8646 18.7498 16.8021 18.7498 17.7083C18.7498 19.1875 16.1873 20.8333 12.4998 20.8333C8.81234 20.8333 6.24984 19.1875 6.24984 17.7083C6.24984 16.8021 7.19775 15.8646 8.71859 15.2604C8.97552 15.1582 9.18131 14.9581 9.29071 14.7042C9.40011 14.4502 9.40414 14.1632 9.30192 13.9063C9.1997 13.6493 8.9996 13.4435 8.74565 13.3341C8.49169 13.2247 8.20468 13.2207 7.94775 13.3229C5.58317 14.2604 4.1665 15.8958 4.1665 17.7083C4.1665 20.625 7.82275 22.9167 12.4998 22.9167C17.1769 22.9167 20.8332 20.625 20.8332 17.7083C20.8332 15.8958 19.4165 14.2604 17.0519 13.3229ZM11.4582 10.2708V17.7083C11.4582 17.9846 11.5679 18.2496 11.7633 18.4449C11.9586 18.6403 12.2236 18.75 12.4998 18.75C12.7761 18.75 13.0411 18.6403 13.2364 18.4449C13.4318 18.2496 13.5415 17.9846 13.5415 17.7083V10.2708C14.5234 10.0173 15.3792 9.41436 15.9484 8.57501C16.5176 7.73565 16.7611 6.71753 16.6333 5.71147C16.5055 4.70542 16.0152 3.7805 15.2542 3.1101C14.4933 2.43969 13.514 2.06982 12.4998 2.06982C11.4857 2.06982 10.5064 2.43969 9.74543 3.1101C8.98448 3.7805 8.49417 4.70542 8.36638 5.71147C8.23859 6.71753 8.48211 7.73565 9.05129 8.57501C9.62047 9.41436 10.4762 10.0173 11.4582 10.2708ZM12.4998 4.16668C12.9119 4.16668 13.3147 4.28887 13.6573 4.51779C13.9999 4.74671 14.2669 5.07208 14.4246 5.45276C14.5823 5.83344 14.6235 6.25233 14.5431 6.65645C14.4628 7.06058 14.2643 7.43179 13.973 7.72315C13.6816 8.01451 13.3104 8.21293 12.9063 8.29332C12.5021 8.3737 12.0833 8.33245 11.7026 8.17476C11.3219 8.01708 10.9965 7.75006 10.7676 7.40745C10.5387 7.06485 10.4165 6.66206 10.4165 6.25001C10.4165 5.69748 10.636 5.16758 11.0267 4.77688C11.4174 4.38618 11.9473 4.16668 12.4998 4.16668Z" fill="black"/>
</svg>
