<svg width="25" height="25" viewBox="0 0 25 25" fill="none" xmlns="http://www.w3.org/2000/svg">
<path d="M22.4277 10.7089L17.7402 15.3964C17.5936 15.543 17.3948 15.6254 17.1875 15.6254C16.9802 15.6254 16.7814 15.543 16.6348 15.3964C16.4882 15.2498 16.4058 15.051 16.4058 14.8437C16.4058 14.6364 16.4882 14.4376 16.6348 14.291L19.9893 10.9374H12.5C10.2216 10.94 8.03724 11.8463 6.42616 13.4574C4.81507 15.0684 3.90883 17.2528 3.90625 19.5312C3.90625 19.7384 3.82394 19.9371 3.67743 20.0836C3.53091 20.2301 3.3322 20.3124 3.125 20.3124C2.9178 20.3124 2.71909 20.2301 2.57257 20.0836C2.42606 19.9371 2.34375 19.7384 2.34375 19.5312C2.34659 16.8385 3.41754 14.2568 5.32159 12.3528C7.22564 10.4487 9.80727 9.37779 12.5 9.37495H19.9893L16.6348 6.02143C16.5622 5.94884 16.5046 5.86267 16.4653 5.76783C16.426 5.673 16.4058 5.57135 16.4058 5.4687C16.4058 5.36604 16.426 5.2644 16.4653 5.16956C16.5046 5.07472 16.5622 4.98855 16.6348 4.91596C16.7814 4.76937 16.9802 4.68701 17.1875 4.68701C17.2902 4.68701 17.3918 4.70723 17.4866 4.74651C17.5815 4.7858 17.6676 4.84338 17.7402 4.91596L22.4277 9.60346C22.5004 9.67602 22.558 9.76218 22.5973 9.85702C22.6366 9.95187 22.6569 10.0535 22.6569 10.1562C22.6569 10.2589 22.6366 10.3605 22.5973 10.4554C22.558 10.5502 22.5004 10.6364 22.4277 10.7089Z" fill="black"/>
</svg>
