<svg width="20" height="20" viewBox="0 0 20 20" fill="none" xmlns="http://www.w3.org/2000/svg">
<path fill-rule="evenodd" clip-rule="evenodd" d="M5.16014 16.5833L3.99348 15.825C3.59059 15.5539 3.20639 15.256 2.84348 14.9333C2.47364 14.615 2.12276 14.2752 1.79264 13.9158C1.62316 13.7604 1.46183 13.5963 1.30931 13.4242C0.984309 13.0408 1.07598 13.0825 1.23431 12.9242C1.36986 12.7697 1.51431 12.6253 1.66764 12.4908L3.75098 10.3308L4.41014 9.70583C4.48529 9.70583 4.55735 9.67598 4.61049 9.62284C4.66362 9.56971 4.69348 9.49764 4.69348 9.42249C4.69348 9.34735 4.66362 9.27528 4.61049 9.22215C4.55735 9.16901 4.48529 9.13916 4.41014 9.13916C4.28346 9.1444 4.16018 9.18167 4.05181 9.24749C3.78514 9.41805 3.53236 9.60694 3.29348 9.81416L0.959309 11.7225C0.661809 11.9367 0.400976 12.195 0.184309 12.49C0.0380813 12.7079 -0.0241019 12.9714 0.00930891 13.2317C0.0543089 13.4508 0.145142 13.6583 0.275976 13.84C0.499864 14.1444 0.752642 14.4225 1.03431 14.6742C1.4182 15.0325 1.82098 15.3686 2.24264 15.6825C2.67153 15.9903 3.11875 16.2683 3.58431 16.5167C5.32681 17.475 5.18514 17.6667 5.44431 17.4083C5.50931 17.3493 5.55095 17.2688 5.56165 17.1817C5.57236 17.0945 5.55142 17.0064 5.50264 16.9333C5.40659 16.8005 5.29062 16.6826 5.16014 16.5833Z" fill="white"/>
<path fill-rule="evenodd" clip-rule="evenodd" d="M19.7578 6.39682C19.472 5.5526 18.9736 4.79619 18.3107 4.20042C17.6478 3.60464 16.8427 3.18956 15.9728 2.99515C15.2865 2.84369 14.5903 2.74066 13.8895 2.68682C12.572 2.56182 11.1378 2.48682 10.8378 2.48682C10.7516 2.48682 10.669 2.52106 10.608 2.58201C10.5471 2.64296 10.5128 2.72562 10.5128 2.81182C10.5117 2.85481 10.5193 2.89758 10.5352 2.93753C10.5512 2.97748 10.5751 3.01377 10.6055 3.04418C10.6359 3.07459 10.6722 3.09849 10.7121 3.11441C10.7521 3.13034 10.7948 3.13796 10.8378 3.13682C11.1628 3.13682 12.5545 3.25348 13.8387 3.42015C14.4909 3.49515 15.1356 3.61182 15.7728 3.77015C16.4808 3.95626 17.1302 4.31835 17.6606 4.82275C18.1911 5.32715 18.5855 5.95748 18.807 6.65515C19.0081 7.36629 19.0374 8.11503 18.8925 8.83971C18.7476 9.56439 18.4327 10.2443 17.9737 10.8235C17.5561 11.3347 17.0331 11.7497 16.4403 12.0401C15.8174 12.3548 15.1633 12.6034 14.4887 12.7818C13.5053 13.0652 12.4978 13.2577 11.4803 13.3568C10.4487 13.4618 9.41477 13.4952 8.37866 13.4568C7.50366 13.4568 4.69366 13.1318 3.51033 12.9818L3.03533 12.9152C2.96317 12.886 2.88249 12.886 2.81033 12.9152C2.81033 12.9152 2.54366 13.3818 2.93533 13.4652L3.43533 13.5485C4.627 13.7485 7.45283 14.1743 8.34533 14.241C9.41533 14.3293 10.4903 14.3435 11.5628 14.2826C12.6455 14.2158 13.7198 14.0513 14.7728 13.791C15.6808 13.5693 16.5531 13.2215 17.3645 12.7577C17.9357 12.4267 18.437 11.9877 18.8403 11.4651C19.3839 10.7534 19.7504 9.92273 19.9098 9.04151C20.0692 8.1603 20.0176 7.25382 19.7578 6.39682Z" fill="white"/>
</svg>
