<svg width="120" height="120" viewBox="0 0 120 120" fill="none" xmlns="http://www.w3.org/2000/svg">
<g clip-path="url(#clip0_65_2991)">
<path d="M0.672196 26.9268C0.437218 27.0007 0.238047 27.1757 0.118378 27.4135C-0.00129178 27.6513 -0.03169 27.9324 0.0338525 28.1952L15.4255 89.6352C15.4916 89.8978 15.6482 90.1204 15.861 90.2542C16.0737 90.3879 16.3253 90.4219 16.5604 90.3486L73.302 72.5901C73.5369 72.5162 73.7361 72.3412 73.8558 72.1034C73.9754 71.8656 74.0059 71.5844 73.9403 71.3216L58.5486 9.8817C58.4825 9.61906 58.3259 9.39644 58.1132 9.26269C57.9004 9.12893 57.6489 9.09495 57.4138 9.16821L0.672196 26.9268Z" fill="#E6E6E6"/>
<path d="M17.2738 87.4473L71.345 70.5245L56.701 12.0693L2.62988 28.9921L17.2738 87.4473Z" fill="white"/>
<path d="M9.77881 36.7975C9.41806 36.9104 9.26932 37.5802 9.44727 38.2905C9.62521 39.0008 10.0635 39.4869 10.4243 39.374L35.0853 31.6558C35.4461 31.5429 35.5948 30.8731 35.4169 30.1628C35.2389 29.4524 34.8006 28.9664 34.4399 29.0793L9.77881 36.7975Z" fill="#E6E6E6"/>
<path d="M11.7646 44.7252C11.4039 44.8382 11.2552 45.5079 11.4331 46.2183C11.6111 46.9286 12.0493 47.4146 12.4101 47.3018L37.0712 39.5835C37.4319 39.4706 37.5806 38.8008 37.4027 38.0905C37.2248 37.3802 36.7865 36.8941 36.4257 37.007L11.7646 44.7252Z" fill="#E6E6E6"/>
<path d="M13.7275 52.5617C13.3668 52.6746 13.2181 53.3444 13.396 54.0547C13.5739 54.765 14.0122 55.2511 14.373 55.1382L39.0341 47.4199C39.3948 47.307 39.5435 46.6372 39.3656 45.9269C39.1876 45.2166 38.7493 44.7305 38.3886 44.8434L13.7275 52.5617Z" fill="#E6E6E6"/>
<path d="M15.7139 60.4894C15.3531 60.6023 15.2044 61.2721 15.3823 61.9824C15.5603 62.6927 15.9986 63.1788 16.3593 63.0659L41.0204 55.3477C41.3811 55.2348 41.5299 54.565 41.3519 53.8547C41.174 53.1443 40.7357 52.6583 40.3749 52.7712L15.7139 60.4894Z" fill="#E6E6E6"/>
<path d="M46.9551 25.2542C46.8036 25.3014 46.6619 25.3815 46.5381 25.49C46.4143 25.5984 46.3108 25.7331 46.2336 25.8863C46.1564 26.0395 46.107 26.2082 46.0882 26.3827C46.0694 26.5573 46.0815 26.7342 46.1239 26.9035C46.1663 27.0728 46.2382 27.2311 46.3354 27.3694C46.4326 27.5076 46.5532 27.6231 46.6903 27.7092C46.8274 27.7953 46.9784 27.8503 47.1346 27.8712C47.2908 27.892 47.4491 27.8783 47.6005 27.8307L52.2108 26.3878C52.5165 26.2921 52.7756 26.0646 52.9313 25.7554C53.0869 25.4461 53.1262 25.0805 53.0406 24.7388C52.955 24.3971 52.7515 24.1075 52.4749 23.9335C52.1982 23.7596 51.871 23.7156 51.5653 23.8113L46.9551 25.2542Z" fill="#E6E6E6"/>
<path d="M48.9023 33.0281C48.7508 33.0753 48.6091 33.1554 48.4853 33.2639C48.3615 33.3724 48.2581 33.507 48.1809 33.6602C48.1037 33.8134 48.0543 33.9821 48.0355 34.1566C48.0166 34.3312 48.0288 34.5082 48.0712 34.6775C48.1136 34.8468 48.1855 35.0051 48.2826 35.1433C48.3798 35.2815 48.5004 35.397 48.6376 35.4831C48.7747 35.5692 48.9257 35.6243 49.0819 35.6451C49.2381 35.666 49.3964 35.6522 49.5478 35.6046L54.1581 34.1617C54.4637 34.066 54.7229 33.8386 54.8785 33.5293C55.0341 33.2201 55.0735 32.8544 54.9879 32.5127C54.9023 32.1711 54.6988 31.8814 54.4221 31.7075C54.1454 31.5335 53.8183 31.4895 53.5126 31.5852L48.9023 33.0281Z" fill="#E6E6E6"/>
<path d="M50.8498 40.802C50.6984 40.8494 50.5569 40.9296 50.4332 41.0381C50.3096 41.1466 50.2063 41.2813 50.1293 41.4344C50.0522 41.5875 50.0029 41.7561 49.9841 41.9305C49.9654 42.105 49.9775 42.2818 50.0199 42.451C50.0623 42.6202 50.1341 42.7783 50.2312 42.9165C50.3282 43.0547 50.4487 43.1701 50.5857 43.2563C50.7227 43.3424 50.8735 43.3975 51.0296 43.4185C51.1856 43.4395 51.3438 43.4259 51.4952 43.3785L56.1055 41.9356C56.4111 41.84 56.6703 41.6125 56.8259 41.3032C56.9816 40.994 57.0209 40.6283 56.9353 40.2867C56.8497 39.945 56.6462 39.6553 56.3695 39.4814C56.0928 39.3074 55.7657 39.2635 55.46 39.3591L50.8498 40.802Z" fill="#E6E6E6"/>
<path d="M52.7976 48.576C52.4923 48.672 52.2335 48.8995 52.0782 49.2087C51.9228 49.5178 51.8836 49.8832 51.9691 50.2246C52.0547 50.566 52.2579 50.8555 52.5343 51.0295C52.8107 51.2035 53.1376 51.2477 53.4431 51.1525L58.0534 49.7096C58.3587 49.6136 58.6175 49.3861 58.7728 49.077C58.9282 48.7679 58.9674 48.4025 58.8819 48.0611C58.7963 47.7197 58.5931 47.4302 58.3167 47.2562C58.0403 47.0822 57.7135 47.0379 57.4079 47.1331L52.7976 48.576Z" fill="#E6E6E6"/>
<path d="M54.658 62.0511C54.465 62.1113 54.2844 62.2134 54.1267 62.3516C53.9689 62.4898 53.8371 62.6614 53.7388 62.8566C53.6404 63.0518 53.5774 63.2667 53.5534 63.4891C53.5295 63.7115 53.5449 63.937 53.599 64.1528C53.653 64.3685 53.7446 64.5702 53.8684 64.7463C53.9922 64.9225 54.1459 65.0696 54.3207 65.1793C54.4954 65.2891 54.6878 65.3592 54.8868 65.3858C55.0858 65.4123 55.2875 65.3948 55.4805 65.3341L61.3549 63.4956C61.7444 63.3737 62.0747 63.0838 62.273 62.6898C62.4713 62.2957 62.5214 61.8298 62.4123 61.3944C62.3033 60.9591 62.0439 60.59 61.6914 60.3683C61.3389 60.1467 60.922 60.0907 60.5325 60.2126L54.658 62.0511Z" fill="#E2A322"/>
<path d="M60.704 55.4209L17.2339 69.0259L17.3421 69.4578L60.8122 55.8528L60.704 55.4209Z" fill="#E6E6E6"/>
<path d="M104.369 113.487L100.883 114.43L95.9727 99.8474L101.118 98.457L104.369 113.487Z" fill="#A0616A"/>
<path d="M94.8676 120L94.844 119.891C94.5677 118.607 94.7582 117.253 95.3739 116.126C95.9895 114.999 96.9799 114.192 98.1279 113.88L104.949 112.037L106.02 116.986L94.8676 120Z" fill="#2F2E41"/>
<path d="M88.9352 116.142L85.3485 116.142L83.6421 100.678L88.9358 100.678L88.9352 116.142Z" fill="#A0616A"/>
<path d="M89.8039 119.977L78.3306 119.976V119.864C78.3306 118.544 78.8001 117.277 79.6357 116.343C80.4713 115.409 81.6045 114.884 82.7862 114.884H82.7865L89.8041 114.885L89.8039 119.977Z" fill="#2F2E41"/>
<path d="M83.6393 110.105L80.1567 63.7141L94.5733 60.7439L94.6303 60.7324L98.8499 63.7643L97.3812 80.8374L104.143 107.456L98.3045 109.173L91.5316 84.4862L89.9816 76.9791L89.1873 86.7341L89.777 110.791L83.6393 110.105Z" fill="#2F2E41"/>
<path d="M79.71 64.7664L79.6719 64.7124L84.6536 22.787L84.6601 22.7321L84.6952 22.6928C84.7686 22.6107 86.5141 20.6828 88.3094 20.6828C88.569 20.6828 88.8158 20.6755 89.0525 20.6688C90.4263 20.6289 91.5116 20.5969 92.8013 22.0388C94.1154 23.5074 98.4029 28.8705 98.4029 36.2157C98.4029 43.3253 98.9821 65.4194 98.988 65.6417L98.9962 65.9537L98.7621 65.7835C98.7043 65.742 92.9376 61.6378 88.1012 65.453C86.5898 66.6454 85.2321 67.0634 84.0711 67.0634C81.369 67.0634 79.7331 64.7993 79.71 64.7664Z" fill="#E2A322"/>
<path d="M90.994 17.2233C94.4762 15.0957 95.7559 10.2156 93.8524 6.32344C91.9488 2.43126 87.5828 1.00083 84.1005 3.12849C80.6183 5.25615 79.3386 10.1362 81.2421 14.0284C83.1457 17.9206 87.5117 19.351 90.994 17.2233Z" fill="#A0616A"/>
<path d="M76.5471 73.7763C76.8871 73.4818 77.1651 73.1076 77.3617 72.6801C77.5583 72.2525 77.6686 71.7819 77.6849 71.3015C77.7012 70.8212 77.623 70.3426 77.4559 69.8996C77.2888 69.4567 77.0369 69.06 76.7178 68.7377L80.7985 57.979L75.4554 59.0781L72.3995 69.1263C71.9505 69.7613 71.7255 70.5583 71.7671 71.3663C71.8087 72.1744 72.1141 72.9373 72.6254 73.5105C73.1366 74.0836 73.8182 74.4273 74.541 74.4763C75.2638 74.5253 75.9776 74.2762 76.5471 73.7763Z" fill="#A0616A"/>
<path d="M72.6045 65.4076L73.9185 62.3068C73.8373 62.2522 73.7704 62.1747 73.7245 62.082C72.4968 59.7038 79.9125 39.9546 80.4068 38.6447C80.3314 37.9322 79.5529 30.3823 80.1221 27.8374C80.7922 24.8417 82.168 23.4455 84.7225 23.169C87.5397 22.8732 88.2998 27.1493 88.307 27.1927L88.3096 38.1855L85.0765 50.8395L77.7029 67.6523L72.6045 65.4076Z" fill="#E2A322"/>
<path d="M88.4661 13.2019C87.6047 13.3272 86.9549 12.3421 86.6535 11.4315C86.3522 10.5209 86.1225 9.46072 85.3736 8.96883C84.3504 8.29681 83.0413 9.10507 81.8713 8.88335C80.5499 8.63296 79.6908 7.06772 79.6235 5.57161C79.5561 4.0755 80.0888 2.63658 80.6114 1.25719L80.7939 2.97146C80.7695 2.39045 80.8789 1.81216 81.1116 1.2919C81.3443 0.77165 81.6925 0.326833 82.123 0L81.8878 2.51543C82.0353 1.10622 83.3935 0.0142783 84.6357 0.306309L84.5987 1.80509C86.1249 1.60225 87.6644 1.39912 89.1951 1.55366C90.7257 1.70819 92.2671 2.24951 93.4273 3.37626C95.1626 5.06171 95.7964 7.83699 95.5836 10.3956C95.3709 12.9542 94.4259 15.3579 93.4411 17.6798C93.1933 18.264 92.8506 18.9232 92.276 18.9976C91.7597 19.0645 91.2873 18.5821 91.1268 18.0296C90.9663 17.4771 91.0446 16.8768 91.1407 16.3059C91.2859 15.4435 91.469 14.562 91.3325 13.6978C91.1959 12.8337 90.6397 11.9797 89.8603 11.8738C89.081 11.7679 88.2835 12.7636 88.6582 13.5348L88.4661 13.2019Z" fill="#2F2E41"/>
</g>
<defs>
<clipPath id="clip0_65_2991">
<rect width="120" height="120" fill="white"/>
</clipPath>
</defs>
</svg>
